<?xml version="1.0" encoding="iso-8859-1"?>
<!-- Uploaded to: SVG Repo, www.svgrepo.com, Generator: SVG Repo Mixer Tools -->
<svg height="800px" width="800px" version="1.1" id="Layer_1" xmlns="http://www.w3.org/2000/svg" xmlns:xlink="http://www.w3.org/1999/xlink" 
	 viewBox="0 0 512.335 512.335" xml:space="preserve">
<g transform="translate(1 1)">
	<g>
		<polygon style="fill:#FCC309;" points="340.333,451.434 383,451.434 383,400.234 340.333,400.234 		"/>
		<polygon style="fill:#FCC309;" points="127,400.234 212.333,400.234 212.333,349.034 127,349.034 		"/>
		<polygon style="fill:#FCC309;" points="127,451.434 169.667,451.434 169.667,400.234 127,400.234 		"/>
		<polygon style="fill:#FCC309;" points="255,451.434 340.333,451.434 340.333,400.234 255,400.234 		"/>
		<polygon style="fill:#FCC309;" points="340.333,451.434 383,451.434 383,400.234 340.333,400.234 		"/>
		<polygon style="fill:#FCC309;" points="127,502.634 212.333,502.634 212.333,451.434 127,451.434 		"/>
		<polygon style="fill:#FCC309;" points="297.667,502.634 383,502.634 383,451.434 297.667,451.434 		"/>
		<polygon style="fill:#FCC309;" points="297.667,400.234 383,400.234 383,349.034 297.667,349.034 		"/>
	</g>
	<g>
		<polygon style="fill:#FFDD09;" points="212.333,400.234 297.667,400.234 297.667,349.034 212.333,349.034 		"/>
		<polygon style="fill:#FFDD09;" points="169.667,451.434 255,451.434 255,400.234 169.667,400.234 		"/>
		<polygon style="fill:#FFDD09;" points="340.333,451.434 383,451.434 383,400.234 340.333,400.234 		"/>
		<polygon style="fill:#FFDD09;" points="212.333,502.634 297.667,502.634 297.667,451.434 212.333,451.434 		"/>
		<polygon style="fill:#FFDD09;" points="144.067,229.567 365.933,229.567 365.933,195.434 144.067,195.434 		"/>
	</g>
	<polygon style="fill:#FD9808;" points="434.2,502.634 451.267,502.634 451.267,127.167 434.2,127.167 	"/>
	<polygon style="fill:#FFDD09;" points="417.133,502.634 434.2,502.634 434.2,127.167 417.133,127.167 	"/>
	<polygon style="fill:#FFFFFF;" points="58.733,502.634 75.8,502.634 75.8,127.167 58.733,127.167 	"/>
	<g>
		<polygon style="fill:#FFDD09;" points="75.8,502.634 92.867,502.634 92.867,127.167 75.8,127.167 		"/>
		<polygon style="fill:#FFDD09;" points="502.467,127.167 7.533,127.167 41.667,7.701 468.333,7.701 		"/>
	</g>
	<polygon style="fill:#FD9808;" points="468.333,7.701 446.147,7.701 476.867,127.167 502.467,127.167 	"/>
	<polygon style="fill:#FFFFFF;" points="41.667,7.701 7.533,127.167 33.133,127.167 63.853,7.701 	"/>
	<path d="M92.867,511.167H58.733c-5.12,0-8.533-3.413-8.533-8.533V127.167c0-5.12,3.413-8.533,8.533-8.533h34.133
		c5.12,0,8.533,3.413,8.533,8.533v375.467C101.4,507.754,97.987,511.167,92.867,511.167z M67.267,494.101h17.067v-358.4H67.267
		V494.101z"/>
	<path d="M451.267,511.167h-34.133c-5.12,0-8.533-3.413-8.533-8.533V127.167c0-5.12,3.413-8.533,8.533-8.533h34.133
		c5.12,0,8.533,3.413,8.533,8.533v375.467C459.8,507.754,456.387,511.167,451.267,511.167z M425.667,494.101h17.067v-358.4h-17.067
		V494.101z"/>
	<path d="M212.333,408.767H127c-5.12,0-8.533-3.413-8.533-8.533v-51.2c0-5.12,3.413-8.533,8.533-8.533h85.333
		c5.12,0,8.533,3.413,8.533,8.533v51.2C220.867,405.354,217.453,408.767,212.333,408.767z M135.533,391.701H203.8v-34.133h-68.267
		V391.701z"/>
	<path d="M297.667,408.767h-85.333c-5.12,0-8.533-3.413-8.533-8.533v-51.2c0-5.12,3.413-8.533,8.533-8.533h85.333
		c5.12,0,8.533,3.413,8.533,8.533v51.2C306.2,405.354,302.787,408.767,297.667,408.767z M220.867,391.701h68.267v-34.133h-68.267
		V391.701z"/>
	<path d="M255,459.967h-85.333c-5.12,0-8.533-3.413-8.533-8.533v-51.2c0-5.12,3.413-8.533,8.533-8.533H255
		c5.12,0,8.533,3.413,8.533,8.533v51.2C263.533,456.554,260.12,459.967,255,459.967z M178.2,442.901h68.267v-34.133H178.2V442.901z"
		/>
	<path d="M169.667,459.967H127c-5.12,0-8.533-3.413-8.533-8.533v-51.2c0-5.12,3.413-8.533,8.533-8.533h42.667
		c5.12,0,8.533,3.413,8.533,8.533v51.2C178.2,456.554,174.787,459.967,169.667,459.967z M135.533,442.901h25.6v-34.133h-25.6
		V442.901z"/>
	<path d="M340.333,459.967H255c-5.12,0-8.533-3.413-8.533-8.533v-51.2c0-5.12,3.413-8.533,8.533-8.533h85.333
		c5.12,0,8.533,3.413,8.533,8.533v51.2C348.867,456.554,345.453,459.967,340.333,459.967z M263.533,442.901H331.8v-34.133h-68.267
		V442.901z"/>
	<path d="M383,459.967h-42.667c-5.12,0-8.533-3.413-8.533-8.533v-51.2c0-5.12,3.413-8.533,8.533-8.533H383
		c5.12,0,8.533,3.413,8.533,8.533v51.2C391.533,456.554,388.12,459.967,383,459.967z M348.867,442.901h25.6v-34.133h-25.6V442.901z"
		/>
	<path d="M212.333,511.167H127c-5.12,0-8.533-3.413-8.533-8.533v-51.2c0-5.12,3.413-8.533,8.533-8.533h85.333
		c5.12,0,8.533,3.413,8.533,8.533v51.2C220.867,507.754,217.453,511.167,212.333,511.167z M135.533,494.101H203.8v-34.133h-68.267
		V494.101z"/>
	<path d="M297.667,511.167h-85.333c-5.12,0-8.533-3.413-8.533-8.533v-51.2c0-5.12,3.413-8.533,8.533-8.533h85.333
		c5.12,0,8.533,3.413,8.533,8.533v51.2C306.2,507.754,302.787,511.167,297.667,511.167z M220.867,494.101h68.267v-34.133h-68.267
		V494.101z"/>
	<path d="M383,511.167h-85.333c-5.12,0-8.533-3.413-8.533-8.533v-51.2c0-5.12,3.413-8.533,8.533-8.533H383
		c5.12,0,8.533,3.413,8.533,8.533v51.2C391.533,507.754,388.12,511.167,383,511.167z M306.2,494.101h68.267v-34.133H306.2V494.101z"
		/>
	<path d="M383,408.767h-85.333c-5.12,0-8.533-3.413-8.533-8.533v-51.2c0-5.12,3.413-8.533,8.533-8.533H383
		c5.12,0,8.533,3.413,8.533,8.533v51.2C391.533,405.354,388.12,408.767,383,408.767z M306.2,391.701h68.267v-34.133H306.2V391.701z"
		/>
	<path d="M502.467,135.701H7.533c-2.56,0-5.12-0.853-6.827-3.413C-1,129.727-1,127.167-1,124.607L33.133,5.141
		c1.707-3.413,5.12-5.973,8.533-5.973h426.667c3.413,0,6.827,2.56,8.533,5.973L511,124.607c0.853,2.56,0,5.12-1.707,7.68
		C507.587,134.847,505.027,135.701,502.467,135.701z M18.627,118.634H490.52l-29.013-102.4H48.493L18.627,118.634z"/>
	<path d="M476.867,221.034H365.933c-5.12,0-8.533-3.413-8.533-8.533c0-5.12,3.413-8.533,8.533-8.533h110.933
		c5.12,0,8.533,3.413,8.533,8.533C485.4,217.621,481.987,221.034,476.867,221.034z"/>
	<path d="M144.067,221.034H33.133c-5.12,0-8.533-3.413-8.533-8.533c0-5.12,3.413-8.533,8.533-8.533h110.933
		c5.12,0,8.533,3.413,8.533,8.533C152.6,217.621,149.187,221.034,144.067,221.034z"/>
	<path d="M476.867,255.167c-5.12,0-8.533-3.413-8.533-8.533v-34.133c0-5.12,3.413-8.533,8.533-8.533c5.12,0,8.533,3.413,8.533,8.533
		v34.133C485.4,251.754,481.987,255.167,476.867,255.167z"/>
	<path d="M502.467,255.167h-25.6c-5.12,0-8.533-3.413-8.533-8.533c0-5.12,3.413-8.533,8.533-8.533h25.6
		c5.12,0,8.533,3.413,8.533,8.533C511,251.754,507.587,255.167,502.467,255.167z"/>
	<path d="M365.933,238.101H144.067c-5.12,0-8.533-3.413-8.533-8.533v-34.133c0-5.12,3.413-8.533,8.533-8.533h221.867
		c5.12,0,8.533,3.413,8.533,8.533v34.133C374.467,234.687,371.053,238.101,365.933,238.101z M152.6,221.034h204.8v-17.067H152.6
		V221.034z"/>
	<path d="M186.733,357.567c-5.12,0-8.533-3.413-8.533-8.533v-153.6c0-5.12,3.413-8.533,8.533-8.533c5.12,0,8.533,3.413,8.533,8.533
		v153.6C195.267,354.154,191.853,357.567,186.733,357.567z"/>
	<path d="M220.867,238.101c-5.12,0-8.533-3.413-8.533-8.533v-34.133c0-5.12,3.413-8.533,8.533-8.533c5.12,0,8.533,3.413,8.533,8.533
		v34.133C229.4,234.687,225.987,238.101,220.867,238.101z"/>
	<path d="M255,238.101c-5.12,0-8.533-3.413-8.533-8.533v-34.133c0-5.12,3.413-8.533,8.533-8.533s8.533,3.413,8.533,8.533v34.133
		C263.533,234.687,260.12,238.101,255,238.101z"/>
</g>
</svg>